<svg width="11" height="14" viewBox="0 0 11 14" fill="none" xmlns="http://www.w3.org/2000/svg">
<path opacity="0.6" d="M5.5 0.907146C5.59649 0.907146 5.68695 0.923576 5.77138 0.956436C5.85581 0.988775 5.93421 1.04406 6.00658 1.1223L10.7829 6.28603C10.9276 6.44251 11 6.62846 11 6.84387C11 7.05877 10.9276 7.24445 10.7829 7.40093C10.6382 7.55741 10.4693 7.63565 10.2763 7.63565C10.0833 7.63565 9.91447 7.55741 9.76974 7.40093L6.22368 3.56725V12.3299C6.22368 12.5516 6.15421 12.7342 6.01526 12.8776C5.8768 13.0211 5.70504 13.0928 5.5 13.0928C5.29496 13.0928 5.12296 13.0179 4.98401 12.8682C4.84555 12.718 4.77632 12.5321 4.77632 12.3104V3.56725L1.23026 7.40093C1.08553 7.55741 0.916666 7.63565 0.723684 7.63565C0.530702 7.63565 0.361843 7.55741 0.217106 7.40093C0.0723686 7.24445 0 7.05877 0 6.84387C0 6.62846 0.0723686 6.44251 0.217106 6.28603L4.99342 1.1223C5.06579 1.04406 5.14419 0.988775 5.22862 0.956436C5.31305 0.923576 5.40351 0.907146 5.5 0.907146Z" fill="black"/>
</svg>
