<svg width="32" height="32" viewBox="0 0 32 32" fill="none" xmlns="http://www.w3.org/2000/svg">
<g clip-path="url(#clip0_651_771)">
<path fill-rule="evenodd" clip-rule="evenodd" d="M16 32C19.1645 32 22.2579 31.0616 24.8891 29.3035C27.5203 27.5454 29.5711 25.0466 30.7821 22.1229C31.9931 19.1993 32.3099 15.9823 31.6926 12.8786C31.0752 9.77487 29.5513 6.92394 27.3137 4.6863C25.0761 2.44866 22.2251 0.924806 19.1214 0.307443C16.0177 -0.309921 12.8007 0.00693253 9.87706 1.21793C6.95345 2.42894 4.45459 4.4797 2.69649 7.11088C0.938384 9.74207 0 12.8355 0 16C0 20.2435 1.68571 24.3131 4.68629 27.3137C7.68687 30.3143 11.7565 32 16 32Z" fill="black"/>
<path d="M14.5928 13.6143C14.3169 13.2373 13.9451 12.9412 13.516 12.7567C13.0147 12.5254 12.468 12.4095 11.916 12.4175C10.764 12.4175 9.77039 12.9151 8.94319 13.9039V8.46387H6.36719V22.5615H8.93839V17.5919C8.93839 16.7577 9.01572 16.1273 9.17039 15.7007C9.29974 15.3055 9.56064 14.9667 9.90959 14.7407C10.2512 14.5254 10.6482 14.4142 11.052 14.4207C11.3797 14.4079 11.7035 14.4955 11.98 14.6719C12.223 14.8288 12.4058 15.0634 12.4984 15.3375C12.596 15.6175 12.6424 16.2767 12.6424 17.3167V22.5615H15.22V16.7439C15.2381 16.0846 15.1937 15.4251 15.0872 14.7743C15.0031 14.358 14.8348 13.9633 14.5928 13.6143Z" fill="white"/>
<path d="M25.2223 14.7743C25.1374 14.3582 24.9693 13.9636 24.7279 13.6143C24.4526 13.2381 24.082 12.9421 23.6543 12.7567C23.1528 12.5261 22.6062 12.4103 22.0543 12.4175C20.9023 12.4175 19.9114 12.9129 19.0815 13.9039V8.46387H16.5039V22.5615H19.0767V17.6015C19.0767 16.7673 19.154 16.1369 19.3087 15.7103C19.4398 15.316 19.7003 14.9777 20.0479 14.7503C20.3891 14.5353 20.7855 14.4241 21.1887 14.4303C21.5169 14.4173 21.8413 14.5049 22.1183 14.6815C22.3614 14.8384 22.5441 15.073 22.6367 15.3471C22.7338 15.6276 22.7823 16.2873 22.7823 17.3263V22.5615H25.3551V16.7439C25.3724 16.0846 25.328 15.4252 25.2223 14.7743Z" fill="white"/>
</g>
<defs>
<clipPath id="clip0_651_771">
<rect width="32" height="32" fill="white"/>
</clipPath>
</defs>
</svg>
