<svg width="21" height="20" viewBox="0 0 21 20" fill="none" xmlns="http://www.w3.org/2000/svg">
<path d="M17.7407 14.2833L14.3532 11.2033C14.1931 11.0578 13.9827 10.9802 13.7664 10.9869C13.5501 10.9935 13.3449 11.084 13.194 11.2392L11.1999 13.29C10.7199 13.1983 9.75487 12.8975 8.76154 11.9067C7.7682 10.9125 7.46737 9.945 7.3782 9.46833L9.42737 7.47333C9.58271 7.32261 9.67332 7.11735 9.68001 6.90101C9.68669 6.68466 9.60894 6.4742 9.4632 6.31417L6.38404 2.9275C6.23824 2.76696 6.0356 2.66959 5.81916 2.65605C5.60273 2.64251 5.38954 2.71388 5.22487 2.855L3.41654 4.40583C3.27246 4.55043 3.18647 4.74287 3.17487 4.94667C3.16237 5.155 2.92404 10.09 6.7507 13.9183C10.089 17.2558 14.2707 17.5 15.4224 17.5C15.5907 17.5 15.694 17.495 15.7215 17.4933C15.9253 17.4819 16.1176 17.3956 16.2615 17.2508L17.8115 15.4417C17.9532 15.2775 18.0251 15.0645 18.0119 14.8481C17.9986 14.6317 17.9013 14.429 17.7407 14.2833Z" fill="#17191C"/>
</svg>
