<svg width="32" height="32" viewBox="0 0 32 32" fill="none" xmlns="http://www.w3.org/2000/svg">
<g clip-path="url(#clip0_651_763)">
<path d="M16 32C24.8366 32 32 24.8366 32 16C32 7.16344 24.8366 0 16 0C7.16344 0 0 7.16344 0 16C0 24.8366 7.16344 32 16 32Z" fill="black"/>
<path fill-rule="evenodd" clip-rule="evenodd" d="M7.24139 15.8309L16.5723 11.8117C21.0157 9.96357 21.9389 9.64254 22.5407 9.63195C22.6731 9.62961 22.969 9.66241 23.1607 9.81797C23.3226 9.94929 23.3671 10.1268 23.3885 10.2512C23.4098 10.3757 23.4363 10.6595 23.4152 10.8811C23.1744 13.4111 22.1325 19.5507 21.6025 22.3843C21.3782 23.5833 20.9369 23.9854 20.509 24.0247C19.5799 24.1102 18.8743 23.4106 17.9744 22.8207L14.4037 20.4222C12.824 19.3813 13.848 18.8091 14.7483 17.8741C14.9839 17.6293 19.0778 13.9056 19.157 13.5678C19.1666 13.5256 19.1761 13.3681 19.0825 13.2849C18.989 13.2017 18.8509 13.2305 18.7512 13.2528C18.61 13.2849 16.3604 14.7718 12.0024 17.7136C11.3638 18.1521 10.7854 18.3658 10.2672 18.3546C9.69595 18.3423 8.59704 18.0316 7.78011 17.766C6.7781 17.4403 5.98171 17.2681 6.05109 16.715C6.08718 16.4269 6.48395 16.1322 7.24136 15.831L7.24139 15.8309Z" fill="white"/>
</g>
<defs>
<clipPath id="clip0_651_763">
<rect width="32" height="32" fill="white"/>
</clipPath>
</defs>
</svg>
