<svg width="32" height="32" viewBox="0 0 32 32" fill="none" xmlns="http://www.w3.org/2000/svg">
<g clip-path="url(#clip0_651_768)">
<path d="M0 15.36C0 8.11733 0 4.50133 2.24 2.24C4.512 0 8.128 0 15.36 0H16.64C23.8827 0 27.4987 0 29.76 2.24C32 4.512 32 8.128 32 15.36V16.64C32 23.8827 32 27.4987 29.76 29.76C27.488 32 23.872 32 16.64 32H15.36C8.11733 32 4.50133 32 2.24 29.76C0 27.488 0 23.872 0 16.64V15.36Z" fill="black"/>
<path d="M17.0251 23.0502C9.7291 23.0502 5.5691 18.0582 5.39844 9.73821H9.06777C9.1851 15.8395 11.8731 18.4209 14.0064 18.9542V9.73821H17.4518V14.9969C19.5531 14.7729 21.7718 12.3729 22.5184 9.72754H25.9531C25.6731 11.0969 25.1136 12.3938 24.3098 13.5372C23.5059 14.6806 22.4749 15.6459 21.2811 16.3729C22.6133 17.0359 23.7898 17.9739 24.733 19.1249C25.6762 20.2758 26.3647 21.6137 26.7531 23.0502H22.9664C22.1558 20.5222 20.1291 18.5595 17.4518 18.2929V23.0502H17.0358H17.0251Z" fill="white"/>
</g>
<defs>
<clipPath id="clip0_651_768">
<rect width="32" height="32" fill="white"/>
</clipPath>
</defs>
</svg>
