<svg width="21" height="20" viewBox="0 0 21 20" fill="none" xmlns="http://www.w3.org/2000/svg">
<path fill-rule="evenodd" clip-rule="evenodd" d="M15.6509 4.69C14.9588 3.99363 14.1355 3.44149 13.2285 3.06557C12.3215 2.68965 11.349 2.49742 10.3672 2.5C6.25156 2.5 2.89844 5.85 2.89844 9.96562C2.89532 11.2761 3.23904 12.5641 3.89469 13.6987L2.83594 17.5681L6.79594 16.5281C7.89093 17.1246 9.11777 17.4377 10.3647 17.4387H10.3678C14.4841 17.4387 17.8334 14.0894 17.8359 9.97062C17.8359 7.97625 17.0597 6.10125 15.6509 4.68937V4.69ZM10.3672 16.1769H10.3647C9.25316 16.1769 8.16203 15.8783 7.20531 15.3125L6.97844 15.1781L4.62719 15.7937L5.25469 13.5031L5.10844 13.2687C4.48631 12.2795 4.15695 11.1343 4.15844 9.96562C4.15844 6.54562 6.94406 3.7625 10.3697 3.7625C11.1849 3.76046 11.9925 3.92016 12.7456 4.23235C13.4988 4.54454 14.1825 5.00302 14.7572 5.58125C15.3347 6.1567 15.7926 6.84088 16.1042 7.59427C16.4158 8.34766 16.5751 9.15533 16.5728 9.97062C16.5728 13.3937 13.7878 16.1769 10.3672 16.1769ZM13.7703 11.5281C13.5847 11.4356 12.6666 10.9844 12.4959 10.9231C12.3253 10.8594 12.2003 10.83 12.0759 11.0156C11.9509 11.2031 11.5947 11.6237 11.4853 11.7481C11.3778 11.87 11.2678 11.8875 11.0822 11.7944C10.8947 11.7019 10.2941 11.5037 9.58094 10.8669C9.02656 10.3731 8.65094 9.76062 8.54344 9.575C8.43344 9.3875 8.53094 9.2875 8.62406 9.19375C8.70906 9.11125 8.81156 8.97687 8.90469 8.86687C8.99719 8.76 9.02969 8.68187 9.09219 8.55687C9.15344 8.4325 9.12219 8.3225 9.07531 8.23C9.02906 8.1375 8.65594 7.21687 8.49969 6.84312C8.34781 6.47937 8.19406 6.53062 8.07969 6.52375C7.97219 6.51875 7.84781 6.51875 7.72344 6.51875C7.59844 6.51875 7.39594 6.565 7.22469 6.75312C7.05406 6.93875 6.57281 7.39062 6.57281 8.30812C6.57281 9.22625 7.24156 10.1144 7.33531 10.2394C7.42781 10.3612 8.65094 12.2456 10.5228 13.0544C10.8697 13.2044 11.2243 13.3356 11.5853 13.4475C12.0322 13.5887 12.4397 13.5694 12.7622 13.5225C13.1209 13.4694 13.8653 13.0712 14.0216 12.6344C14.1759 12.2 14.1759 11.8262 14.1291 11.7481C14.0828 11.67 13.9584 11.6231 13.7703 11.5281Z" fill="#38CD61"/>
</svg>
