<svg width="32" height="32" viewBox="0 0 32 32" fill="none" xmlns="http://www.w3.org/2000/svg">
<path fill-rule="evenodd" clip-rule="evenodd" d="M15.9985 27.9995C13.7836 28.0261 11.6063 27.4252 9.71854 26.2662L9.31854 25.9995L4.63854 27.1995L5.85187 22.6662L5.58521 22.2662C4.36638 20.3 3.71995 18.0329 3.71854 15.7195C3.7159 13.287 4.43499 10.9084 5.78479 8.88469C7.13458 6.86102 9.0544 5.28329 11.3013 4.35118C13.5481 3.41908 16.021 3.17451 18.4069 3.64842C20.7928 4.12234 22.9845 5.29344 24.7046 7.01349C26.4246 8.73355 27.5957 10.9252 28.0696 13.3111C28.5436 15.6971 28.299 18.1699 27.3669 20.4168C26.4348 22.6637 24.857 24.5835 22.8334 25.9333C20.8097 27.2831 18.4311 28.0022 15.9985 27.9995ZM20.1319 17.7329C20.5319 17.8662 22.2652 18.7995 22.6652 18.9329L22.6785 18.9595C22.9354 19.0501 23.2062 19.0952 23.4785 19.0929C23.4701 19.6802 23.3804 20.2635 23.2119 20.8262C22.59 21.6762 21.6961 22.2878 20.6785 22.5595C19.9238 22.7069 19.1441 22.661 18.4119 22.4262C17.8785 22.1595 17.2119 22.0262 16.2785 21.6262C13.6959 20.4505 11.5131 18.5458 9.99854 16.1462C9.16289 15.0624 8.65406 13.7626 8.53188 12.3995C8.50948 11.821 8.61771 11.2449 8.84855 10.714C9.07938 10.1831 9.42687 9.71102 9.86521 9.33285C10.1174 9.09061 10.4492 8.94843 10.7985 8.93285H11.4652C11.7319 8.93285 11.8652 8.93285 12.2652 9.59952C12.6652 10.2662 13.4652 11.9995 13.4652 12.2662C13.4652 12.5329 13.5985 12.6662 13.4652 12.9329C13.3319 13.1995 13.1985 13.3329 13.0652 13.5995C12.9211 13.8467 12.7414 14.0713 12.5319 14.2662C12.3985 14.5329 12.1319 14.6662 12.3985 15.0662C12.8923 16.0338 13.5719 16.8947 14.3985 17.5995C15.2105 18.4504 16.2172 19.091 17.3319 19.4662C17.7319 19.5995 17.8652 19.5995 18.1319 19.3329C18.5641 18.8712 18.965 18.3812 19.3319 17.8662C19.5985 17.5995 19.7319 17.5995 20.1319 17.7329Z" fill="black"/>
<path fill-rule="evenodd" clip-rule="evenodd" d="M9.71854 26.2662C11.6063 27.4252 13.7836 28.0261 15.9985 27.9995C18.4311 28.0022 20.8097 27.2831 22.8334 25.9333C24.857 24.5835 26.4348 22.6637 27.3669 20.4168C28.299 18.1699 28.5436 15.6971 28.0696 13.3111C27.5957 10.9252 26.4246 8.73355 24.7046 7.01349C22.9845 5.29344 20.7928 4.12234 18.4069 3.64842C16.021 3.17451 13.5481 3.41908 11.3013 4.35118C9.0544 5.28329 7.13458 6.86102 5.78479 8.88469C4.43499 10.9084 3.7159 13.287 3.71854 15.7195C3.71995 18.0329 4.36638 20.3 5.58521 22.2662L5.85187 22.6662L4.63854 27.1995L9.31854 25.9995L9.71854 26.2662ZM15.9985 1.17285C19.8869 1.21449 23.6122 2.74088 26.4119 5.43952L26.3852 5.47952C29.1261 8.26373 30.7041 11.987 30.7985 15.8929C30.7985 17.8189 30.4192 19.7261 29.6821 21.5055C28.945 23.285 27.8647 24.9018 26.5028 26.2638C25.1409 27.6257 23.524 28.706 21.7446 29.4431C19.9651 30.1802 18.0579 30.5595 16.1319 30.5595C13.6615 30.6052 11.2218 30.0078 9.05188 28.8262L1.17188 30.8262L3.33188 23.1862C2.02177 20.9596 1.33123 18.423 1.33188 15.8395C1.33188 11.9497 2.87711 8.21915 5.62764 5.46862C8.37818 2.71808 12.1087 1.17285 15.9985 1.17285Z" fill="black"/>
</svg>
